<?xml version="1.0" encoding="utf-8" standalone="no"?>
<!DOCTYPE svg PUBLIC "-//W3C//DTD SVG 1.1//EN"
  "http://www.w3.org/Graphics/SVG/1.1/DTD/svg11.dtd">
<svg xmlns:xlink="http://www.w3.org/1999/xlink" width="908.39952pt" height="353.99952pt" viewBox="0 0 908.39952 353.99952" xmlns="http://www.w3.org/2000/svg" version="1.1">
 <metadata>
  <rdf:RDF xmlns:dc="http://purl.org/dc/elements/1.1/" xmlns:cc="http://creativecommons.org/ns#" xmlns:rdf="http://www.w3.org/1999/02/22-rdf-syntax-ns#">
   <cc:Work>
    <dc:type rdf:resource="http://purl.org/dc/dcmitype/StillImage"/>
    <dc:date>2026-04-21T01:11:12.395213</dc:date>
    <dc:format>image/svg+xml</dc:format>
    <dc:creator>
     <cc:Agent>
      <dc:title>Matplotlib v3.6.3, https://matplotlib.org/</dc:title>
     </cc:Agent>
    </dc:creator>
   </cc:Work>
  </rdf:RDF>
 </metadata>
 <defs>
  <style type="text/css">*{stroke-linejoin: round; stroke-linecap: butt}</style>
 </defs>
 <g id="figure_1">
  <g id="patch_1">
   <path d="M 0 353.99952 
L 908.39952 353.99952 
L 908.39952 0 
L 0 0 
z
" style="fill: #ffffff"/>
  </g>
  <g id="axes_1">
   <g id="patch_2">
    <path d="M 95.699952 301.932125 
L 108.089945 301.932125 
L 108.089945 71.18552 
L 95.699952 71.18552 
z
" clip-path="url(#p9f53c65aec)" style="fill: #1f3a5f; stroke: #1f3a5f; stroke-linejoin: miter"/>
   </g>
   <g id="patch_3">
    <path d="M 348.809815 301.932125 
L 361.199808 301.932125 
L 361.199808 71.18552 
L 348.809815 71.18552 
z
" clip-path="url(#p9f53c65aec)" style="fill: #1f3a5f; stroke: #1f3a5f; stroke-linejoin: miter"/>
   </g>
   <g id="patch_4">
    <path d="M 109.859944 303.21405 
L 347.039816 303.21405 
Q 349.694814 303.21405 349.694814 299.368274 
L 349.694814 73.749371 
Q 349.694814 69.903595 347.039816 69.903595 
L 109.859944 69.903595 
Q 107.204946 69.903595 107.204946 73.749371 
L 107.204946 299.368274 
Q 107.204946 303.21405 109.859944 303.21405 
z
" clip-path="url(#p9f53c65aec)" style="fill: #f8f1d6; opacity: 0.85; stroke: #d4a72c; stroke-width: 1.5; stroke-linejoin: miter"/>
   </g>
   <g id="text_1">
    <!-- Dielectric -->
    <g style="fill: #8a6d1d" transform="translate(200.02863 55.161451) scale(0.12 -0.12)">
     <defs>
      <path id="DejaVuSans-44" d="M 1259 4147 
L 1259 519 
L 2022 519 
Q 2988 519 3436 956 
Q 3884 1394 3884 2338 
Q 3884 3275 3436 3711 
Q 2988 4147 2022 4147 
L 1259 4147 
z
M 628 4666 
L 1925 4666 
Q 3281 4666 3915 4102 
Q 4550 3538 4550 2338 
Q 4550 1131 3912 565 
Q 3275 0 1925 0 
L 628 0 
L 628 4666 
z
" transform="scale(0.015625)"/>
      <path id="DejaVuSans-69" d="M 603 3500 
L 1178 3500 
L 1178 0 
L 603 0 
L 603 3500 
z
M 603 4863 
L 1178 4863 
L 1178 4134 
L 603 4134 
L 603 4863 
z
" transform="scale(0.015625)"/>
      <path id="DejaVuSans-65" d="M 3597 1894 
L 3597 1613 
L 953 1613 
Q 991 1019 1311 708 
Q 1631 397 2203 397 
Q 2534 397 2845 478 
Q 3156 559 3463 722 
L 3463 178 
Q 3153 47 2828 -22 
Q 2503 -91 2169 -91 
Q 1331 -91 842 396 
Q 353 884 353 1716 
Q 353 2575 817 3079 
Q 1281 3584 2069 3584 
Q 2775 3584 3186 3129 
Q 3597 2675 3597 1894 
z
M 3022 2063 
Q 3016 2534 2758 2815 
Q 2500 3097 2075 3097 
Q 1594 3097 1305 2825 
Q 1016 2553 972 2059 
L 3022 2063 
z
" transform="scale(0.015625)"/>
      <path id="DejaVuSans-6c" d="M 603 4863 
L 1178 4863 
L 1178 0 
L 603 0 
L 603 4863 
z
" transform="scale(0.015625)"/>
      <path id="DejaVuSans-63" d="M 3122 3366 
L 3122 2828 
Q 2878 2963 2633 3030 
Q 2388 3097 2138 3097 
Q 1578 3097 1268 2742 
Q 959 2388 959 1747 
Q 959 1106 1268 751 
Q 1578 397 2138 397 
Q 2388 397 2633 464 
Q 2878 531 3122 666 
L 3122 134 
Q 2881 22 2623 -34 
Q 2366 -91 2075 -91 
Q 1284 -91 818 406 
Q 353 903 353 1747 
Q 353 2603 823 3093 
Q 1294 3584 2113 3584 
Q 2378 3584 2631 3529 
Q 2884 3475 3122 3366 
z
" transform="scale(0.015625)"/>
      <path id="DejaVuSans-74" d="M 1172 4494 
L 1172 3500 
L 2356 3500 
L 2356 3053 
L 1172 3053 
L 1172 1153 
Q 1172 725 1289 603 
Q 1406 481 1766 481 
L 2356 481 
L 2356 0 
L 1766 0 
Q 1100 0 847 248 
Q 594 497 594 1153 
L 594 3053 
L 172 3053 
L 172 3500 
L 594 3500 
L 594 4494 
L 1172 4494 
z
" transform="scale(0.015625)"/>
      <path id="DejaVuSans-72" d="M 2631 2963 
Q 2534 3019 2420 3045 
Q 2306 3072 2169 3072 
Q 1681 3072 1420 2755 
Q 1159 2438 1159 1844 
L 1159 0 
L 581 0 
L 581 3500 
L 1159 3500 
L 1159 2956 
Q 1341 3275 1631 3429 
Q 1922 3584 2338 3584 
Q 2397 3584 2469 3576 
Q 2541 3569 2628 3553 
L 2631 2963 
z
" transform="scale(0.015625)"/>
     </defs>
     <use xlink:href="#DejaVuSans-44"/>
     <use xlink:href="#DejaVuSans-69" x="77.001953"/>
     <use xlink:href="#DejaVuSans-65" x="104.785156"/>
     <use xlink:href="#DejaVuSans-6c" x="166.308594"/>
     <use xlink:href="#DejaVuSans-65" x="194.091797"/>
     <use xlink:href="#DejaVuSans-63" x="255.615234"/>
     <use xlink:href="#DejaVuSans-74" x="310.595703"/>
     <use xlink:href="#DejaVuSans-72" x="349.804688"/>
     <use xlink:href="#DejaVuSans-69" x="390.917969"/>
     <use xlink:href="#DejaVuSans-63" x="418.701172"/>
    </g>
   </g>
   <g id="text_2">
    <!-- + -->
    <g style="fill: #b23a48" transform="translate(63.820746 191.525697) scale(0.18 -0.18)">
     <defs>
      <path id="DejaVuSans-Bold-2b" d="M 3053 4013 
L 3053 2375 
L 4684 2375 
L 4684 1638 
L 3053 1638 
L 3053 0 
L 2309 0 
L 2309 1638 
L 678 1638 
L 678 2375 
L 2309 2375 
L 2309 4013 
L 3053 4013 
z
" transform="scale(0.015625)"/>
     </defs>
     <use xlink:href="#DejaVuSans-Bold-2b"/>
    </g>
   </g>
   <g id="text_3">
    <!-- - -->
    <g style="fill: #1f3a5f" transform="translate(381.802295 191.525697) scale(0.18 -0.18)">
     <defs>
      <path id="DejaVuSans-Bold-2d" d="M 347 2297 
L 2309 2297 
L 2309 1388 
L 347 1388 
L 347 2297 
z
" transform="scale(0.015625)"/>
     </defs>
     <use xlink:href="#DejaVuSans-Bold-2d"/>
    </g>
   </g>
   <g id="patch_5">
    <path d="M 130.889743 273.088799 
Q 228.450924 273.088799 324.335053 273.088799 
" style="fill: none; stroke: #1e6f5c; stroke-width: 1.5; stroke-linecap: round"/>
    <path d="M 320.335053 271.088799 
L 324.335053 273.088799 
L 320.335053 275.088799 
" style="fill: none; stroke: #1e6f5c; stroke-width: 1.5; stroke-linecap: round"/>
   </g>
   <g id="patch_6">
    <path d="M 130.889743 238.476808 
Q 228.450924 238.476808 324.335053 238.476808 
" style="fill: none; stroke: #1e6f5c; stroke-width: 1.5; stroke-linecap: round"/>
    <path d="M 320.335053 236.476808 
L 324.335053 238.476808 
L 320.335053 240.476808 
" style="fill: none; stroke: #1e6f5c; stroke-width: 1.5; stroke-linecap: round"/>
   </g>
   <g id="patch_7">
    <path d="M 130.889743 203.864818 
Q 228.450924 203.864818 324.335053 203.864818 
" style="fill: none; stroke: #1e6f5c; stroke-width: 1.5; stroke-linecap: round"/>
    <path d="M 320.335053 201.864818 
L 324.335053 203.864818 
L 320.335053 205.864818 
" style="fill: none; stroke: #1e6f5c; stroke-width: 1.5; stroke-linecap: round"/>
   </g>
   <g id="patch_8">
    <path d="M 130.889743 169.252827 
Q 228.450924 169.252827 324.335053 169.252827 
" style="fill: none; stroke: #1e6f5c; stroke-width: 1.5; stroke-linecap: round"/>
    <path d="M 320.335053 167.252827 
L 324.335053 169.252827 
L 320.335053 171.252827 
" style="fill: none; stroke: #1e6f5c; stroke-width: 1.5; stroke-linecap: round"/>
   </g>
   <g id="patch_9">
    <path d="M 130.889743 134.640837 
Q 228.450924 134.640837 324.335053 134.640837 
" style="fill: none; stroke: #1e6f5c; stroke-width: 1.5; stroke-linecap: round"/>
    <path d="M 320.335053 132.640837 
L 324.335053 134.640837 
L 320.335053 136.640837 
" style="fill: none; stroke: #1e6f5c; stroke-width: 1.5; stroke-linecap: round"/>
   </g>
   <g id="patch_10">
    <path d="M 130.889743 100.028846 
Q 228.450924 100.028846 324.335053 100.028846 
" style="fill: none; stroke: #1e6f5c; stroke-width: 1.5; stroke-linecap: round"/>
    <path d="M 320.335053 98.028846 
L 324.335053 100.028846 
L 320.335053 102.028846 
" style="fill: none; stroke: #1e6f5c; stroke-width: 1.5; stroke-linecap: round"/>
   </g>
   <g id="text_4">
    <!-- Electric field lines point from + plate to - plate -->
    <g style="fill: #1e6f5c" transform="translate(100.879958 328.852562) scale(0.11 -0.11)">
     <defs>
      <path id="DejaVuSans-45" d="M 628 4666 
L 3578 4666 
L 3578 4134 
L 1259 4134 
L 1259 2753 
L 3481 2753 
L 3481 2222 
L 1259 2222 
L 1259 531 
L 3634 531 
L 3634 0 
L 628 0 
L 628 4666 
z
" transform="scale(0.015625)"/>
      <path id="DejaVuSans-20" transform="scale(0.015625)"/>
      <path id="DejaVuSans-66" d="M 2375 4863 
L 2375 4384 
L 1825 4384 
Q 1516 4384 1395 4259 
Q 1275 4134 1275 3809 
L 1275 3500 
L 2222 3500 
L 2222 3053 
L 1275 3053 
L 1275 0 
L 697 0 
L 697 3053 
L 147 3053 
L 147 3500 
L 697 3500 
L 697 3744 
Q 697 4328 969 4595 
Q 1241 4863 1831 4863 
L 2375 4863 
z
" transform="scale(0.015625)"/>
      <path id="DejaVuSans-64" d="M 2906 2969 
L 2906 4863 
L 3481 4863 
L 3481 0 
L 2906 0 
L 2906 525 
Q 2725 213 2448 61 
Q 2172 -91 1784 -91 
Q 1150 -91 751 415 
Q 353 922 353 1747 
Q 353 2572 751 3078 
Q 1150 3584 1784 3584 
Q 2172 3584 2448 3432 
Q 2725 3281 2906 2969 
z
M 947 1747 
Q 947 1113 1208 752 
Q 1469 391 1925 391 
Q 2381 391 2643 752 
Q 2906 1113 2906 1747 
Q 2906 2381 2643 2742 
Q 2381 3103 1925 3103 
Q 1469 3103 1208 2742 
Q 947 2381 947 1747 
z
" transform="scale(0.015625)"/>
      <path id="DejaVuSans-6e" d="M 3513 2113 
L 3513 0 
L 2938 0 
L 2938 2094 
Q 2938 2591 2744 2837 
Q 2550 3084 2163 3084 
Q 1697 3084 1428 2787 
Q 1159 2491 1159 1978 
L 1159 0 
L 581 0 
L 581 3500 
L 1159 3500 
L 1159 2956 
Q 1366 3272 1645 3428 
Q 1925 3584 2291 3584 
Q 2894 3584 3203 3211 
Q 3513 2838 3513 2113 
z
" transform="scale(0.015625)"/>
      <path id="DejaVuSans-73" d="M 2834 3397 
L 2834 2853 
Q 2591 2978 2328 3040 
Q 2066 3103 1784 3103 
Q 1356 3103 1142 2972 
Q 928 2841 928 2578 
Q 928 2378 1081 2264 
Q 1234 2150 1697 2047 
L 1894 2003 
Q 2506 1872 2764 1633 
Q 3022 1394 3022 966 
Q 3022 478 2636 193 
Q 2250 -91 1575 -91 
Q 1294 -91 989 -36 
Q 684 19 347 128 
L 347 722 
Q 666 556 975 473 
Q 1284 391 1588 391 
Q 1994 391 2212 530 
Q 2431 669 2431 922 
Q 2431 1156 2273 1281 
Q 2116 1406 1581 1522 
L 1381 1569 
Q 847 1681 609 1914 
Q 372 2147 372 2553 
Q 372 3047 722 3315 
Q 1072 3584 1716 3584 
Q 2034 3584 2315 3537 
Q 2597 3491 2834 3397 
z
" transform="scale(0.015625)"/>
      <path id="DejaVuSans-70" d="M 1159 525 
L 1159 -1331 
L 581 -1331 
L 581 3500 
L 1159 3500 
L 1159 2969 
Q 1341 3281 1617 3432 
Q 1894 3584 2278 3584 
Q 2916 3584 3314 3078 
Q 3713 2572 3713 1747 
Q 3713 922 3314 415 
Q 2916 -91 2278 -91 
Q 1894 -91 1617 61 
Q 1341 213 1159 525 
z
M 3116 1747 
Q 3116 2381 2855 2742 
Q 2594 3103 2138 3103 
Q 1681 3103 1420 2742 
Q 1159 2381 1159 1747 
Q 1159 1113 1420 752 
Q 1681 391 2138 391 
Q 2594 391 2855 752 
Q 3116 1113 3116 1747 
z
" transform="scale(0.015625)"/>
      <path id="DejaVuSans-6f" d="M 1959 3097 
Q 1497 3097 1228 2736 
Q 959 2375 959 1747 
Q 959 1119 1226 758 
Q 1494 397 1959 397 
Q 2419 397 2687 759 
Q 2956 1122 2956 1747 
Q 2956 2369 2687 2733 
Q 2419 3097 1959 3097 
z
M 1959 3584 
Q 2709 3584 3137 3096 
Q 3566 2609 3566 1747 
Q 3566 888 3137 398 
Q 2709 -91 1959 -91 
Q 1206 -91 779 398 
Q 353 888 353 1747 
Q 353 2609 779 3096 
Q 1206 3584 1959 3584 
z
" transform="scale(0.015625)"/>
      <path id="DejaVuSans-6d" d="M 3328 2828 
Q 3544 3216 3844 3400 
Q 4144 3584 4550 3584 
Q 5097 3584 5394 3201 
Q 5691 2819 5691 2113 
L 5691 0 
L 5113 0 
L 5113 2094 
Q 5113 2597 4934 2840 
Q 4756 3084 4391 3084 
Q 3944 3084 3684 2787 
Q 3425 2491 3425 1978 
L 3425 0 
L 2847 0 
L 2847 2094 
Q 2847 2600 2669 2842 
Q 2491 3084 2119 3084 
Q 1678 3084 1418 2786 
Q 1159 2488 1159 1978 
L 1159 0 
L 581 0 
L 581 3500 
L 1159 3500 
L 1159 2956 
Q 1356 3278 1631 3431 
Q 1906 3584 2284 3584 
Q 2666 3584 2933 3390 
Q 3200 3197 3328 2828 
z
" transform="scale(0.015625)"/>
      <path id="DejaVuSans-2b" d="M 2944 4013 
L 2944 2272 
L 4684 2272 
L 4684 1741 
L 2944 1741 
L 2944 0 
L 2419 0 
L 2419 1741 
L 678 1741 
L 678 2272 
L 2419 2272 
L 2419 4013 
L 2944 4013 
z
" transform="scale(0.015625)"/>
      <path id="DejaVuSans-61" d="M 2194 1759 
Q 1497 1759 1228 1600 
Q 959 1441 959 1056 
Q 959 750 1161 570 
Q 1363 391 1709 391 
Q 2188 391 2477 730 
Q 2766 1069 2766 1631 
L 2766 1759 
L 2194 1759 
z
M 3341 1997 
L 3341 0 
L 2766 0 
L 2766 531 
Q 2569 213 2275 61 
Q 1981 -91 1556 -91 
Q 1019 -91 701 211 
Q 384 513 384 1019 
Q 384 1609 779 1909 
Q 1175 2209 1959 2209 
L 2766 2209 
L 2766 2266 
Q 2766 2663 2505 2880 
Q 2244 3097 1772 3097 
Q 1472 3097 1187 3025 
Q 903 2953 641 2809 
L 641 3341 
Q 956 3463 1253 3523 
Q 1550 3584 1831 3584 
Q 2591 3584 2966 3190 
Q 3341 2797 3341 1997 
z
" transform="scale(0.015625)"/>
      <path id="DejaVuSans-2d" d="M 313 2009 
L 1997 2009 
L 1997 1497 
L 313 1497 
L 313 2009 
z
" transform="scale(0.015625)"/>
     </defs>
     <use xlink:href="#DejaVuSans-45"/>
     <use xlink:href="#DejaVuSans-6c" x="63.183594"/>
     <use xlink:href="#DejaVuSans-65" x="90.966797"/>
     <use xlink:href="#DejaVuSans-63" x="152.490234"/>
     <use xlink:href="#DejaVuSans-74" x="207.470703"/>
     <use xlink:href="#DejaVuSans-72" x="246.679688"/>
     <use xlink:href="#DejaVuSans-69" x="287.792969"/>
     <use xlink:href="#DejaVuSans-63" x="315.576172"/>
     <use xlink:href="#DejaVuSans-20" x="370.556641"/>
     <use xlink:href="#DejaVuSans-66" x="402.34375"/>
     <use xlink:href="#DejaVuSans-69" x="437.548828"/>
     <use xlink:href="#DejaVuSans-65" x="465.332031"/>
     <use xlink:href="#DejaVuSans-6c" x="526.855469"/>
     <use xlink:href="#DejaVuSans-64" x="554.638672"/>
     <use xlink:href="#DejaVuSans-20" x="618.115234"/>
     <use xlink:href="#DejaVuSans-6c" x="649.902344"/>
     <use xlink:href="#DejaVuSans-69" x="677.685547"/>
     <use xlink:href="#DejaVuSans-6e" x="705.46875"/>
     <use xlink:href="#DejaVuSans-65" x="768.847656"/>
     <use xlink:href="#DejaVuSans-73" x="830.371094"/>
     <use xlink:href="#DejaVuSans-20" x="882.470703"/>
     <use xlink:href="#DejaVuSans-70" x="914.257812"/>
     <use xlink:href="#DejaVuSans-6f" x="977.734375"/>
     <use xlink:href="#DejaVuSans-69" x="1038.916016"/>
     <use xlink:href="#DejaVuSans-6e" x="1066.699219"/>
     <use xlink:href="#DejaVuSans-74" x="1130.078125"/>
     <use xlink:href="#DejaVuSans-20" x="1169.287109"/>
     <use xlink:href="#DejaVuSans-66" x="1201.074219"/>
     <use xlink:href="#DejaVuSans-72" x="1236.279297"/>
     <use xlink:href="#DejaVuSans-6f" x="1275.142578"/>
     <use xlink:href="#DejaVuSans-6d" x="1336.324219"/>
     <use xlink:href="#DejaVuSans-20" x="1433.736328"/>
     <use xlink:href="#DejaVuSans-2b" x="1465.523438"/>
     <use xlink:href="#DejaVuSans-20" x="1549.3125"/>
     <use xlink:href="#DejaVuSans-70" x="1581.099609"/>
     <use xlink:href="#DejaVuSans-6c" x="1644.576172"/>
     <use xlink:href="#DejaVuSans-61" x="1672.359375"/>
     <use xlink:href="#DejaVuSans-74" x="1733.638672"/>
     <use xlink:href="#DejaVuSans-65" x="1772.847656"/>
     <use xlink:href="#DejaVuSans-20" x="1834.371094"/>
     <use xlink:href="#DejaVuSans-74" x="1866.158203"/>
     <use xlink:href="#DejaVuSans-6f" x="1905.367188"/>
     <use xlink:href="#DejaVuSans-20" x="1966.548828"/>
     <use xlink:href="#DejaVuSans-2d" x="1998.335938"/>
     <use xlink:href="#DejaVuSans-20" x="2034.419922"/>
     <use xlink:href="#DejaVuSans-70" x="2066.207031"/>
     <use xlink:href="#DejaVuSans-6c" x="2129.683594"/>
     <use xlink:href="#DejaVuSans-61" x="2157.466797"/>
     <use xlink:href="#DejaVuSans-74" x="2218.746094"/>
     <use xlink:href="#DejaVuSans-65" x="2257.955078"/>
    </g>
   </g>
   <g id="text_5">
    <!-- Parallel-plate capacitor -->
    <g transform="translate(159.403005 16.318125) scale(0.12 -0.12)">
     <defs>
      <path id="DejaVuSans-50" d="M 1259 4147 
L 1259 2394 
L 2053 2394 
Q 2494 2394 2734 2622 
Q 2975 2850 2975 3272 
Q 2975 3691 2734 3919 
Q 2494 4147 2053 4147 
L 1259 4147 
z
M 628 4666 
L 2053 4666 
Q 2838 4666 3239 4311 
Q 3641 3956 3641 3272 
Q 3641 2581 3239 2228 
Q 2838 1875 2053 1875 
L 1259 1875 
L 1259 0 
L 628 0 
L 628 4666 
z
" transform="scale(0.015625)"/>
     </defs>
     <use xlink:href="#DejaVuSans-50"/>
     <use xlink:href="#DejaVuSans-61" x="55.802734"/>
     <use xlink:href="#DejaVuSans-72" x="117.082031"/>
     <use xlink:href="#DejaVuSans-61" x="158.195312"/>
     <use xlink:href="#DejaVuSans-6c" x="219.474609"/>
     <use xlink:href="#DejaVuSans-6c" x="247.257812"/>
     <use xlink:href="#DejaVuSans-65" x="275.041016"/>
     <use xlink:href="#DejaVuSans-6c" x="336.564453"/>
     <use xlink:href="#DejaVuSans-2d" x="364.347656"/>
     <use xlink:href="#DejaVuSans-70" x="400.431641"/>
     <use xlink:href="#DejaVuSans-6c" x="463.908203"/>
     <use xlink:href="#DejaVuSans-61" x="491.691406"/>
     <use xlink:href="#DejaVuSans-74" x="552.970703"/>
     <use xlink:href="#DejaVuSans-65" x="592.179688"/>
     <use xlink:href="#DejaVuSans-20" x="653.703125"/>
     <use xlink:href="#DejaVuSans-63" x="685.490234"/>
     <use xlink:href="#DejaVuSans-61" x="740.470703"/>
     <use xlink:href="#DejaVuSans-70" x="801.75"/>
     <use xlink:href="#DejaVuSans-61" x="865.226562"/>
     <use xlink:href="#DejaVuSans-63" x="926.505859"/>
     <use xlink:href="#DejaVuSans-69" x="981.486328"/>
     <use xlink:href="#DejaVuSans-74" x="1009.269531"/>
     <use xlink:href="#DejaVuSans-6f" x="1048.478516"/>
     <use xlink:href="#DejaVuSans-72" x="1109.660156"/>
    </g>
   </g>
  </g>
  <g id="axes_2">
   <g id="patch_11">
    <path d="M 642.77966 277.575539 
L 725.969615 277.575539 
Q 733.934611 277.575539 733.934611 266.038208 
L 733.934611 119.898692 
Q 733.934611 108.361362 725.969615 108.361362 
L 642.77966 108.361362 
Q 634.814664 108.361362 634.814664 119.898692 
L 634.814664 266.038208 
Q 634.814664 277.575539 642.77966 277.575539 
z
" clip-path="url(#p2627ef2c5b)" style="fill: #3f4b59; stroke: #222b34; stroke-width: 1.6; stroke-linejoin: miter"/>
   </g>
   <g id="patch_12">
    <path d="M 711.809623 276.293613 
L 724.199616 276.293613 
L 724.199616 109.643288 
L 711.809623 109.643288 
z
" clip-path="url(#p2627ef2c5b)" style="fill: #d6dde7"/>
   </g>
   <g id="line2d_1">
    <path d="M 663.134649 276.293613 
L 663.134649 332.698339 
" clip-path="url(#p2627ef2c5b)" style="fill: none; stroke: #5f6b7a; stroke-width: 2.3; stroke-linecap: square"/>
   </g>
   <g id="line2d_2">
    <path d="M 696.764631 276.293613 
L 696.764631 317.315232 
" clip-path="url(#p2627ef2c5b)" style="fill: none; stroke: #5f6b7a; stroke-width: 2.3; stroke-linecap: square"/>
   </g>
   <g id="text_6">
    <!-- - -->
    <g style="fill: #222b34" transform="translate(715.514619 141.797863) scale(0.12 -0.12)">
     <use xlink:href="#DejaVuSans-Bold-2d"/>
    </g>
   </g>
   <g id="text_7">
    <!-- + -->
    <g style="fill: #b23a48" transform="translate(645.321374 142.349738) scale(0.14 -0.14)">
     <use xlink:href="#DejaVuSans-Bold-2b"/>
    </g>
   </g>
   <g id="text_8">
    <!-- + terminal -->
    <g style="fill: #b23a48" transform="translate(633.803321 341.671818) scale(0.11 -0.11)">
     <use xlink:href="#DejaVuSans-2b"/>
     <use xlink:href="#DejaVuSans-20" x="83.789062"/>
     <use xlink:href="#DejaVuSans-74" x="115.576172"/>
     <use xlink:href="#DejaVuSans-65" x="154.785156"/>
     <use xlink:href="#DejaVuSans-72" x="216.308594"/>
     <use xlink:href="#DejaVuSans-6d" x="255.671875"/>
     <use xlink:href="#DejaVuSans-69" x="353.083984"/>
     <use xlink:href="#DejaVuSans-6e" x="380.867188"/>
     <use xlink:href="#DejaVuSans-61" x="444.246094"/>
     <use xlink:href="#DejaVuSans-6c" x="505.525391"/>
    </g>
   </g>
   <g id="text_9">
    <!-- - terminal -->
    <g style="fill: #1f3a5f" transform="translate(695.28032 341.671818) scale(0.11 -0.11)">
     <use xlink:href="#DejaVuSans-2d"/>
     <use xlink:href="#DejaVuSans-20" x="36.083984"/>
     <use xlink:href="#DejaVuSans-74" x="67.871094"/>
     <use xlink:href="#DejaVuSans-65" x="107.080078"/>
     <use xlink:href="#DejaVuSans-72" x="168.603516"/>
     <use xlink:href="#DejaVuSans-6d" x="207.966797"/>
     <use xlink:href="#DejaVuSans-69" x="305.378906"/>
     <use xlink:href="#DejaVuSans-6e" x="333.162109"/>
     <use xlink:href="#DejaVuSans-61" x="396.541016"/>
     <use xlink:href="#DejaVuSans-6c" x="457.820312"/>
    </g>
   </g>
   <g id="patch_13">
    <path d="M 804.810059 96.027008 
Q 765.253918 131.015883 726.870188 164.967718 
" style="fill: none; stroke: #c25b20; stroke-width: 1.4; stroke-linecap: round"/>
    <path d="M 731.623491 163.700394 
L 726.870188 164.967718 
L 728.708311 160.404682 
" style="fill: none; stroke: #c25b20; stroke-width: 1.4; stroke-linecap: round"/>
   </g>
   <g id="text_10">
    <!-- Observe the polarity marks -->
    <g transform="translate(746.31386 78.09681) scale(0.11 -0.11)">
     <defs>
      <path id="DejaVuSans-4f" d="M 2522 4238 
Q 1834 4238 1429 3725 
Q 1025 3213 1025 2328 
Q 1025 1447 1429 934 
Q 1834 422 2522 422 
Q 3209 422 3611 934 
Q 4013 1447 4013 2328 
Q 4013 3213 3611 3725 
Q 3209 4238 2522 4238 
z
M 2522 4750 
Q 3503 4750 4090 4092 
Q 4678 3434 4678 2328 
Q 4678 1225 4090 567 
Q 3503 -91 2522 -91 
Q 1538 -91 948 565 
Q 359 1222 359 2328 
Q 359 3434 948 4092 
Q 1538 4750 2522 4750 
z
" transform="scale(0.015625)"/>
      <path id="DejaVuSans-62" d="M 3116 1747 
Q 3116 2381 2855 2742 
Q 2594 3103 2138 3103 
Q 1681 3103 1420 2742 
Q 1159 2381 1159 1747 
Q 1159 1113 1420 752 
Q 1681 391 2138 391 
Q 2594 391 2855 752 
Q 3116 1113 3116 1747 
z
M 1159 2969 
Q 1341 3281 1617 3432 
Q 1894 3584 2278 3584 
Q 2916 3584 3314 3078 
Q 3713 2572 3713 1747 
Q 3713 922 3314 415 
Q 2916 -91 2278 -91 
Q 1894 -91 1617 61 
Q 1341 213 1159 525 
L 1159 0 
L 581 0 
L 581 4863 
L 1159 4863 
L 1159 2969 
z
" transform="scale(0.015625)"/>
      <path id="DejaVuSans-76" d="M 191 3500 
L 800 3500 
L 1894 563 
L 2988 3500 
L 3597 3500 
L 2284 0 
L 1503 0 
L 191 3500 
z
" transform="scale(0.015625)"/>
      <path id="DejaVuSans-68" d="M 3513 2113 
L 3513 0 
L 2938 0 
L 2938 2094 
Q 2938 2591 2744 2837 
Q 2550 3084 2163 3084 
Q 1697 3084 1428 2787 
Q 1159 2491 1159 1978 
L 1159 0 
L 581 0 
L 581 4863 
L 1159 4863 
L 1159 2956 
Q 1366 3272 1645 3428 
Q 1925 3584 2291 3584 
Q 2894 3584 3203 3211 
Q 3513 2838 3513 2113 
z
" transform="scale(0.015625)"/>
      <path id="DejaVuSans-79" d="M 2059 -325 
Q 1816 -950 1584 -1140 
Q 1353 -1331 966 -1331 
L 506 -1331 
L 506 -850 
L 844 -850 
Q 1081 -850 1212 -737 
Q 1344 -625 1503 -206 
L 1606 56 
L 191 3500 
L 800 3500 
L 1894 763 
L 2988 3500 
L 3597 3500 
L 2059 -325 
z
" transform="scale(0.015625)"/>
      <path id="DejaVuSans-6b" d="M 581 4863 
L 1159 4863 
L 1159 1991 
L 2875 3500 
L 3609 3500 
L 1753 1863 
L 3688 0 
L 2938 0 
L 1159 1709 
L 1159 0 
L 581 0 
L 581 4863 
z
" transform="scale(0.015625)"/>
     </defs>
     <use xlink:href="#DejaVuSans-4f"/>
     <use xlink:href="#DejaVuSans-62" x="78.710938"/>
     <use xlink:href="#DejaVuSans-73" x="142.1875"/>
     <use xlink:href="#DejaVuSans-65" x="194.287109"/>
     <use xlink:href="#DejaVuSans-72" x="255.810547"/>
     <use xlink:href="#DejaVuSans-76" x="296.923828"/>
     <use xlink:href="#DejaVuSans-65" x="356.103516"/>
     <use xlink:href="#DejaVuSans-20" x="417.626953"/>
     <use xlink:href="#DejaVuSans-74" x="449.414062"/>
     <use xlink:href="#DejaVuSans-68" x="488.623047"/>
     <use xlink:href="#DejaVuSans-65" x="552.001953"/>
     <use xlink:href="#DejaVuSans-20" x="613.525391"/>
     <use xlink:href="#DejaVuSans-70" x="645.3125"/>
     <use xlink:href="#DejaVuSans-6f" x="708.789062"/>
     <use xlink:href="#DejaVuSans-6c" x="769.970703"/>
     <use xlink:href="#DejaVuSans-61" x="797.753906"/>
     <use xlink:href="#DejaVuSans-72" x="859.033203"/>
     <use xlink:href="#DejaVuSans-69" x="900.146484"/>
     <use xlink:href="#DejaVuSans-74" x="927.929688"/>
     <use xlink:href="#DejaVuSans-79" x="967.138672"/>
     <use xlink:href="#DejaVuSans-20" x="1026.318359"/>
     <use xlink:href="#DejaVuSans-6d" x="1058.105469"/>
     <use xlink:href="#DejaVuSans-61" x="1155.517578"/>
     <use xlink:href="#DejaVuSans-72" x="1216.796875"/>
     <use xlink:href="#DejaVuSans-6b" x="1257.910156"/>
     <use xlink:href="#DejaVuSans-73" x="1315.820312"/>
    </g>
    <!-- before connecting -->
    <g transform="translate(771.672298 90.414404) scale(0.11 -0.11)">
     <defs>
      <path id="DejaVuSans-67" d="M 2906 1791 
Q 2906 2416 2648 2759 
Q 2391 3103 1925 3103 
Q 1463 3103 1205 2759 
Q 947 2416 947 1791 
Q 947 1169 1205 825 
Q 1463 481 1925 481 
Q 2391 481 2648 825 
Q 2906 1169 2906 1791 
z
M 3481 434 
Q 3481 -459 3084 -895 
Q 2688 -1331 1869 -1331 
Q 1566 -1331 1297 -1286 
Q 1028 -1241 775 -1147 
L 775 -588 
Q 1028 -725 1275 -790 
Q 1522 -856 1778 -856 
Q 2344 -856 2625 -561 
Q 2906 -266 2906 331 
L 2906 616 
Q 2728 306 2450 153 
Q 2172 0 1784 0 
Q 1141 0 747 490 
Q 353 981 353 1791 
Q 353 2603 747 3093 
Q 1141 3584 1784 3584 
Q 2172 3584 2450 3431 
Q 2728 3278 2906 2969 
L 2906 3500 
L 3481 3500 
L 3481 434 
z
" transform="scale(0.015625)"/>
     </defs>
     <use xlink:href="#DejaVuSans-62"/>
     <use xlink:href="#DejaVuSans-65" x="63.476562"/>
     <use xlink:href="#DejaVuSans-66" x="125"/>
     <use xlink:href="#DejaVuSans-6f" x="160.205078"/>
     <use xlink:href="#DejaVuSans-72" x="221.386719"/>
     <use xlink:href="#DejaVuSans-65" x="260.25"/>
     <use xlink:href="#DejaVuSans-20" x="321.773438"/>
     <use xlink:href="#DejaVuSans-63" x="353.560547"/>
     <use xlink:href="#DejaVuSans-6f" x="408.541016"/>
     <use xlink:href="#DejaVuSans-6e" x="469.722656"/>
     <use xlink:href="#DejaVuSans-6e" x="533.101562"/>
     <use xlink:href="#DejaVuSans-65" x="596.480469"/>
     <use xlink:href="#DejaVuSans-63" x="658.003906"/>
     <use xlink:href="#DejaVuSans-74" x="712.984375"/>
     <use xlink:href="#DejaVuSans-69" x="752.193359"/>
     <use xlink:href="#DejaVuSans-6e" x="779.976562"/>
     <use xlink:href="#DejaVuSans-67" x="843.355469"/>
    </g>
   </g>
   <g id="text_11">
    <!-- Reverse connection can damage an electrolytic capacitor -->
    <g style="fill: #5f6b7a" transform="translate(533.399403 307.059827) scale(0.105 -0.105)">
     <defs>
      <path id="DejaVuSans-52" d="M 2841 2188 
Q 3044 2119 3236 1894 
Q 3428 1669 3622 1275 
L 4263 0 
L 3584 0 
L 2988 1197 
Q 2756 1666 2539 1819 
Q 2322 1972 1947 1972 
L 1259 1972 
L 1259 0 
L 628 0 
L 628 4666 
L 2053 4666 
Q 2853 4666 3247 4331 
Q 3641 3997 3641 3322 
Q 3641 2881 3436 2590 
Q 3231 2300 2841 2188 
z
M 1259 4147 
L 1259 2491 
L 2053 2491 
Q 2509 2491 2742 2702 
Q 2975 2913 2975 3322 
Q 2975 3731 2742 3939 
Q 2509 4147 2053 4147 
L 1259 4147 
z
" transform="scale(0.015625)"/>
     </defs>
     <use xlink:href="#DejaVuSans-52"/>
     <use xlink:href="#DejaVuSans-65" x="64.982422"/>
     <use xlink:href="#DejaVuSans-76" x="126.505859"/>
     <use xlink:href="#DejaVuSans-65" x="185.685547"/>
     <use xlink:href="#DejaVuSans-72" x="247.208984"/>
     <use xlink:href="#DejaVuSans-73" x="288.322266"/>
     <use xlink:href="#DejaVuSans-65" x="340.421875"/>
     <use xlink:href="#DejaVuSans-20" x="401.945312"/>
     <use xlink:href="#DejaVuSans-63" x="433.732422"/>
     <use xlink:href="#DejaVuSans-6f" x="488.712891"/>
     <use xlink:href="#DejaVuSans-6e" x="549.894531"/>
     <use xlink:href="#DejaVuSans-6e" x="613.273438"/>
     <use xlink:href="#DejaVuSans-65" x="676.652344"/>
     <use xlink:href="#DejaVuSans-63" x="738.175781"/>
     <use xlink:href="#DejaVuSans-74" x="793.15625"/>
     <use xlink:href="#DejaVuSans-69" x="832.365234"/>
     <use xlink:href="#DejaVuSans-6f" x="860.148438"/>
     <use xlink:href="#DejaVuSans-6e" x="921.330078"/>
     <use xlink:href="#DejaVuSans-20" x="984.708984"/>
     <use xlink:href="#DejaVuSans-63" x="1016.496094"/>
     <use xlink:href="#DejaVuSans-61" x="1071.476562"/>
     <use xlink:href="#DejaVuSans-6e" x="1132.755859"/>
     <use xlink:href="#DejaVuSans-20" x="1196.134766"/>
     <use xlink:href="#DejaVuSans-64" x="1227.921875"/>
     <use xlink:href="#DejaVuSans-61" x="1291.398438"/>
     <use xlink:href="#DejaVuSans-6d" x="1352.677734"/>
     <use xlink:href="#DejaVuSans-61" x="1450.089844"/>
     <use xlink:href="#DejaVuSans-67" x="1511.369141"/>
     <use xlink:href="#DejaVuSans-65" x="1574.845703"/>
     <use xlink:href="#DejaVuSans-20" x="1636.369141"/>
     <use xlink:href="#DejaVuSans-61" x="1668.15625"/>
     <use xlink:href="#DejaVuSans-6e" x="1729.435547"/>
     <use xlink:href="#DejaVuSans-20" x="1792.814453"/>
     <use xlink:href="#DejaVuSans-65" x="1824.601562"/>
     <use xlink:href="#DejaVuSans-6c" x="1886.125"/>
     <use xlink:href="#DejaVuSans-65" x="1913.908203"/>
     <use xlink:href="#DejaVuSans-63" x="1975.431641"/>
     <use xlink:href="#DejaVuSans-74" x="2030.412109"/>
     <use xlink:href="#DejaVuSans-72" x="2069.621094"/>
     <use xlink:href="#DejaVuSans-6f" x="2108.484375"/>
     <use xlink:href="#DejaVuSans-6c" x="2169.666016"/>
     <use xlink:href="#DejaVuSans-79" x="2197.449219"/>
     <use xlink:href="#DejaVuSans-74" x="2256.628906"/>
     <use xlink:href="#DejaVuSans-69" x="2295.837891"/>
     <use xlink:href="#DejaVuSans-63" x="2323.621094"/>
     <use xlink:href="#DejaVuSans-20" x="2378.601562"/>
     <use xlink:href="#DejaVuSans-63" x="2410.388672"/>
     <use xlink:href="#DejaVuSans-61" x="2465.369141"/>
     <use xlink:href="#DejaVuSans-70" x="2526.648438"/>
     <use xlink:href="#DejaVuSans-61" x="2590.125"/>
     <use xlink:href="#DejaVuSans-63" x="2651.404297"/>
     <use xlink:href="#DejaVuSans-69" x="2706.384766"/>
     <use xlink:href="#DejaVuSans-74" x="2734.167969"/>
     <use xlink:href="#DejaVuSans-6f" x="2773.376953"/>
     <use xlink:href="#DejaVuSans-72" x="2834.558594"/>
    </g>
   </g>
   <g id="text_12">
    <!-- Electrolytic capacitor polarity -->
    <g transform="translate(592.016827 16.318125) scale(0.12 -0.12)">
     <use xlink:href="#DejaVuSans-45"/>
     <use xlink:href="#DejaVuSans-6c" x="63.183594"/>
     <use xlink:href="#DejaVuSans-65" x="90.966797"/>
     <use xlink:href="#DejaVuSans-63" x="152.490234"/>
     <use xlink:href="#DejaVuSans-74" x="207.470703"/>
     <use xlink:href="#DejaVuSans-72" x="246.679688"/>
     <use xlink:href="#DejaVuSans-6f" x="285.542969"/>
     <use xlink:href="#DejaVuSans-6c" x="346.724609"/>
     <use xlink:href="#DejaVuSans-79" x="374.507812"/>
     <use xlink:href="#DejaVuSans-74" x="433.6875"/>
     <use xlink:href="#DejaVuSans-69" x="472.896484"/>
     <use xlink:href="#DejaVuSans-63" x="500.679688"/>
     <use xlink:href="#DejaVuSans-20" x="555.660156"/>
     <use xlink:href="#DejaVuSans-63" x="587.447266"/>
     <use xlink:href="#DejaVuSans-61" x="642.427734"/>
     <use xlink:href="#DejaVuSans-70" x="703.707031"/>
     <use xlink:href="#DejaVuSans-61" x="767.183594"/>
     <use xlink:href="#DejaVuSans-63" x="828.462891"/>
     <use xlink:href="#DejaVuSans-69" x="883.443359"/>
     <use xlink:href="#DejaVuSans-74" x="911.226562"/>
     <use xlink:href="#DejaVuSans-6f" x="950.435547"/>
     <use xlink:href="#DejaVuSans-72" x="1011.617188"/>
     <use xlink:href="#DejaVuSans-20" x="1052.730469"/>
     <use xlink:href="#DejaVuSans-70" x="1084.517578"/>
     <use xlink:href="#DejaVuSans-6f" x="1147.994141"/>
     <use xlink:href="#DejaVuSans-6c" x="1209.175781"/>
     <use xlink:href="#DejaVuSans-61" x="1236.958984"/>
     <use xlink:href="#DejaVuSans-72" x="1298.238281"/>
     <use xlink:href="#DejaVuSans-69" x="1339.351562"/>
     <use xlink:href="#DejaVuSans-74" x="1367.134766"/>
     <use xlink:href="#DejaVuSans-79" x="1406.34375"/>
    </g>
   </g>
  </g>
 </g>
 <defs>
  <clipPath id="p9f53c65aec">
   <rect x="7.2" y="26.318125" width="442.49976" height="320.481395"/>
  </clipPath>
  <clipPath id="p2627ef2c5b">
   <rect x="458.69976" y="26.318125" width="442.49976" height="320.481395"/>
  </clipPath>
 </defs>
</svg>
